<svg width="828" height="448" viewBox="0 0 828 448" fill="none" xmlns="http://www.w3.org/2000/svg">
<mask id="mask0_340_367" style="mask-type:alpha" maskUnits="userSpaceOnUse" x="0" y="0" width="828" height="448">
<path d="M0 40C0 17.9086 17.9086 0 40 0H828V448H40C17.9086 448 0 430.091 0 408V40Z" fill="white"/>
</mask>
<g mask="url(#mask0_340_367)">
<path d="M120.738 513.473C121.291 513.792 121.999 513.603 122.318 513.05C122.638 512.496 122.448 511.789 121.895 511.469L120.738 513.473ZM92.2487 427.569L99.5055 438.135L106.184 426.568L93.4055 425.566L92.2487 427.569ZM121.895 511.469L51.7717 470.984L50.615 472.987L120.738 513.473L121.895 511.469ZM80.69 420.896L93.2505 428.148L94.4072 426.144L81.8467 418.892L80.69 420.896ZM41.1869 431.481C49.1724 417.649 66.8586 412.91 80.69 420.896L81.8467 418.892C66.9088 410.268 47.8078 415.386 39.1834 430.324L41.1869 431.481ZM51.7717 470.984C37.9403 462.998 33.2013 445.312 41.1869 431.481L39.1834 430.324C30.559 445.262 35.6771 464.363 50.615 472.987L51.7717 470.984Z" fill="#FF006B" fill-opacity="0.29"/>
<path d="M97.3633 220.821L104.042 232.389L110.72 220.821L97.3633 220.821ZM139.3 313.153C138.746 312.833 138.039 313.023 137.72 313.576C137.4 314.129 137.59 314.837 138.143 315.156L139.3 313.153ZM105.801 227.028L214.992 290.07L216.149 288.067L106.957 225.025L105.801 227.028ZM186.074 340.158L139.3 313.153L138.143 315.156L184.917 342.162L186.074 340.158ZM225.577 329.573C217.592 343.405 199.905 348.144 186.074 340.158L184.917 342.162C199.855 350.786 218.956 345.668 227.581 330.73L225.577 329.573ZM214.992 290.07C228.824 298.056 233.563 315.742 225.577 329.573L227.581 330.73C236.205 315.792 231.087 296.691 216.149 288.067L214.992 290.07Z" fill="#FF006B" fill-opacity="0.29"/>
<path d="M108.84 366.357L155.422 393.251C169.806 401.556 174.735 419.95 166.43 434.335V434.335C158.125 448.719 139.731 453.648 125.347 445.343L78.7648 418.449" stroke="#FF006B" stroke-opacity="0.29" stroke-width="2.31346" stroke-linecap="round"/>
<path d="M138.914 314.266L57.2708 267.129C42.8861 258.824 24.4926 263.752 16.1876 278.137V278.137C7.88259 292.522 12.8111 310.915 27.1958 319.22L108.839 366.357" stroke="#FF006B" stroke-opacity="0.29" stroke-width="2.31346" stroke-linecap="round"/>
<path d="M758.738 230.473C759.291 230.792 759.999 230.603 760.318 230.05C760.638 229.496 760.448 228.789 759.895 228.469L758.738 230.473ZM730.249 144.569L737.505 155.135L744.184 143.568L731.405 142.566L730.249 144.569ZM759.895 228.469L689.772 187.984L688.615 189.987L758.738 230.473L759.895 228.469ZM718.69 137.896L731.25 145.148L732.407 143.144L719.847 135.892L718.69 137.896ZM679.187 148.481C687.172 134.649 704.859 129.91 718.69 137.896L719.847 135.892C704.909 127.268 685.808 132.386 677.183 147.324L679.187 148.481ZM689.772 187.984C675.94 179.998 671.201 162.312 679.187 148.481L677.183 147.324C668.559 162.262 673.677 181.363 688.615 189.987L689.772 187.984Z" fill="#FF006B" fill-opacity="0.29"/>
<path d="M735.363 -62.1787L742.042 -50.6114L748.72 -62.1787L735.363 -62.1787ZM777.3 30.1528C776.746 29.8334 776.039 30.023 775.72 30.5762C775.4 31.1295 775.59 31.8369 776.143 32.1564L777.3 30.1528ZM743.801 -55.9717L852.992 7.07017L854.149 5.06666L744.957 -57.9752L743.801 -55.9717ZM824.074 57.1581L777.3 30.1528L776.143 32.1564L822.917 59.1616L824.074 57.1581ZM863.577 46.5732C855.592 60.4046 837.905 65.1436 824.074 57.1581L822.917 59.1616C837.855 67.786 856.956 62.6679 865.581 47.73L863.577 46.5732ZM852.992 7.07017C866.824 15.0557 871.563 32.7419 863.577 46.5732L865.581 47.73C874.205 32.7921 869.087 13.6911 854.149 5.06666L852.992 7.07017Z" fill="#FF006B" fill-opacity="0.29"/>
<path d="M746.84 83.3574L793.422 110.251C807.806 118.556 812.735 136.95 804.43 151.335V151.335C796.125 165.719 777.731 170.648 763.347 162.343L716.765 135.449" stroke="#FF006B" stroke-opacity="0.29" stroke-width="2.31346" stroke-linecap="round"/>
<path d="M776.914 31.2656L695.271 -15.8712C680.886 -24.1761 662.493 -19.2476 654.188 -4.86294V-4.86294C645.883 9.5217 650.811 27.9153 665.196 36.2203L746.839 83.357" stroke="#FF006B" stroke-opacity="0.29" stroke-width="2.31346" stroke-linecap="round"/>
</g>
</svg>