<svg width="249" height="231" viewBox="0 0 249 231" fill="none" xmlns="http://www.w3.org/2000/svg">
<path d="M179.738 230.473C180.291 230.792 180.999 230.603 181.318 230.05C181.638 229.496 181.448 228.789 180.895 228.469L179.738 230.473ZM151.249 144.569L158.505 155.135L165.184 143.568L152.405 142.566L151.249 144.569ZM180.895 228.469L110.772 187.984L109.615 189.987L179.738 230.473L180.895 228.469ZM139.69 137.896L152.25 145.148L153.407 143.144L140.847 135.892L139.69 137.896ZM100.187 148.481C108.172 134.649 125.859 129.91 139.69 137.896L140.847 135.892C125.909 127.268 106.808 132.386 98.1834 147.324L100.187 148.481ZM110.772 187.984C96.9403 179.998 92.2013 162.312 100.187 148.481L98.1834 147.324C89.559 162.262 94.6771 181.363 109.615 189.987L110.772 187.984Z" fill="#FF006B" fill-opacity="0.29"/>
<path d="M156.363 -62.1787L163.042 -50.6114L169.72 -62.1787L156.363 -62.1787ZM198.3 30.1528C197.746 29.8334 197.039 30.023 196.72 30.5762C196.4 31.1295 196.59 31.8369 197.143 32.1564L198.3 30.1528ZM164.801 -55.9717L273.992 7.07017L275.149 5.06666L165.957 -57.9752L164.801 -55.9717ZM245.074 57.1581L198.3 30.1528L197.143 32.1564L243.917 59.1616L245.074 57.1581ZM284.577 46.5732C276.592 60.4046 258.905 65.1436 245.074 57.1581L243.917 59.1616C258.855 67.786 277.956 62.6679 286.581 47.73L284.577 46.5732ZM273.992 7.07017C287.824 15.0557 292.563 32.7419 284.577 46.5732L286.581 47.73C295.205 32.7921 290.087 13.6911 275.149 5.06666L273.992 7.07017Z" fill="#FF006B" fill-opacity="0.29"/>
<path d="M167.84 83.3574L214.422 110.251C228.806 118.556 233.735 136.95 225.43 151.335V151.335C217.125 165.719 198.731 170.648 184.347 162.343L137.765 135.449" stroke="#FF006B" stroke-opacity="0.29" stroke-width="2.31346" stroke-linecap="round"/>
<path d="M197.914 31.2656L116.271 -15.8712C101.886 -24.1761 83.4926 -19.2476 75.1876 -4.86294V-4.86294C66.8826 9.5217 71.8111 27.9153 86.1958 36.2203L167.839 83.357" stroke="#FF006B" stroke-opacity="0.29" stroke-width="2.31346" stroke-linecap="round"/>
</svg>
