<svg width="242" height="248" viewBox="0 0 242 248" fill="none" xmlns="http://www.w3.org/2000/svg">
<path d="M120.738 313.473C121.291 313.792 121.999 313.603 122.318 313.05C122.638 312.496 122.448 311.789 121.895 311.469L120.738 313.473ZM92.2487 227.569L99.5055 238.135L106.184 226.568L93.4055 225.566L92.2487 227.569ZM121.895 311.469L51.7717 270.984L50.615 272.987L120.738 313.473L121.895 311.469ZM80.69 220.896L93.2505 228.148L94.4072 226.144L81.8467 218.892L80.69 220.896ZM41.1869 231.481C49.1724 217.649 66.8586 212.91 80.69 220.896L81.8467 218.892C66.9088 210.268 47.8078 215.386 39.1834 230.324L41.1869 231.481ZM51.7717 270.984C37.9403 262.998 33.2013 245.312 41.1869 231.481L39.1834 230.324C30.559 245.262 35.6771 264.363 50.615 272.987L51.7717 270.984Z" fill="#FF006B" fill-opacity="0.29"/>
<path d="M97.3633 20.8213L104.042 32.3886L110.72 20.8213L97.3633 20.8213ZM139.3 113.153C138.746 112.833 138.039 113.023 137.72 113.576C137.4 114.129 137.59 114.837 138.143 115.156L139.3 113.153ZM105.801 27.0283L214.992 90.0702L216.149 88.0667L106.957 25.0248L105.801 27.0283ZM186.074 140.158L139.3 113.153L138.143 115.156L184.917 142.162L186.074 140.158ZM225.577 129.573C217.592 143.405 199.905 148.144 186.074 140.158L184.917 142.162C199.855 150.786 218.956 145.668 227.581 130.73L225.577 129.573ZM214.992 90.0702C228.824 98.0557 233.563 115.742 225.577 129.573L227.581 130.73C236.205 115.792 231.087 96.6911 216.149 88.0667L214.992 90.0702Z" fill="#FF006B" fill-opacity="0.29"/>
<path d="M108.84 166.357L155.422 193.251C169.806 201.556 174.735 219.95 166.43 234.335V234.335C158.125 248.719 139.731 253.648 125.347 245.343L78.7648 218.449" stroke="#FF006B" stroke-opacity="0.29" stroke-width="2.31346" stroke-linecap="round"/>
<path d="M138.914 114.266L57.2708 67.1288C42.8861 58.8239 24.4926 63.7524 16.1876 78.1371V78.1371C7.88259 92.5217 12.8111 110.915 27.1958 119.22L108.839 166.357" stroke="#FF006B" stroke-opacity="0.29" stroke-width="2.31346" stroke-linecap="round"/>
</svg>
